<?xml version="1.0" encoding="UTF-8" standalone="no"?>
<svg
   shape-rendering="geometricPrecision"
   text-rendering="geometricPrecision"
   image-rendering="optimizeQuality"
   fill-rule="evenodd"
   clip-rule="evenodd"
   viewBox="0 0 16 16"
   version="1.1"
   id="svg140"
   sodipodi:docname="Add_PWSL.svg"
   width="16"
   height="16"
   xmlns:inkscape="http://www.inkscape.org/namespaces/inkscape"
   xmlns:sodipodi="http://sodipodi.sourceforge.net/DTD/sodipodi-0.dtd"
   xmlns="http://www.w3.org/2000/svg"
   xmlns:svg="http://www.w3.org/2000/svg">
  <defs
     id="defs144" />
  <sodipodi:namedview
     id="namedview142"
     pagecolor="#ffffff"
     bordercolor="#000000"
     borderopacity="0.25"
     inkscape:showpageshadow="2"
     inkscape:pageopacity="0.0"
     inkscape:pagecheckerboard="0"
     inkscape:deskcolor="#d1d1d1"
     showgrid="false" />
  <path
     fill-rule="nonzero"
     d="M 256,0 C 326.68,0 390.68,28.66 437.01,74.99 483.34,121.32 512,185.32 512,256 512,326.68 483.34,390.68 437.01,437.01 390.68,483.34 326.68,512 256,512 185.32,512 121.32,483.34 74.99,437.01 28.66,390.68 0,326.68 0,256 0,185.32 28.66,121.32 74.99,74.99 121.32,28.66 185.32,0 256,0 Z m 0,366.69 c -14.07,0 -25.59,-11.55 -25.59,-25.59 V 281.58 H 170.9 c -14.05,0 -25.6,-11.54 -25.6,-25.6 0,-14.05 11.52,-25.59 25.6,-25.59 h 59.51 v -59.51 c 0,-14.05 11.53,-25.59 25.59,-25.59 14.06,0 25.59,11.51 25.59,25.59 v 59.51 h 59.52 c 14.07,0 25.6,11.52 25.6,25.59 0,14.08 -11.55,25.6 -25.6,25.6 h -59.52 v 59.52 c 0,14.07 -11.52,25.59 -25.59,25.59 z M 412.87,99.13 C 372.73,58.99 317.26,34.16 256,34.16 194.74,34.16 139.27,58.99 99.13,99.13 58.99,139.27 34.16,194.74 34.16,256 c 0,61.26 24.83,116.73 64.97,156.87 40.14,40.14 95.61,64.97 156.87,64.97 61.26,0 116.73,-24.83 156.87,-64.97 40.14,-40.14 64.97,-95.61 64.97,-156.87 0,-61.26 -24.83,-116.73 -64.97,-156.87 z"
     id="path138" />
</svg>
