<?xml version="1.0" encoding="UTF-8" standalone="no"?>
<!-- Created with Inkscape (http://www.inkscape.org/) -->

<svg
   width="20"
   height="20"
   viewBox="0 0 20 20"
   version="1.1"
   id="svg182"
   inkscape:version="1.2.2 (732a01da63, 2022-12-09)"
   sodipodi:docname="Forward2.svg"
   inkscape:export-filename="Forward2_PWSL.png"
   inkscape:export-xdpi="96"
   inkscape:export-ydpi="96"
   xmlns:inkscape="http://www.inkscape.org/namespaces/inkscape"
   xmlns:sodipodi="http://sodipodi.sourceforge.net/DTD/sodipodi-0.dtd"
   xmlns="http://www.w3.org/2000/svg"
   xmlns:svg="http://www.w3.org/2000/svg">
  <sodipodi:namedview
     id="namedview184"
     pagecolor="#ffffff"
     bordercolor="#000000"
     borderopacity="0.25"
     inkscape:showpageshadow="2"
     inkscape:pageopacity="0.0"
     inkscape:pagecheckerboard="0"
     inkscape:deskcolor="#d1d1d1"
     inkscape:document-units="mm"
     showgrid="true"
     inkscape:zoom="32"
     inkscape:cx="3.671875"
     inkscape:cy="9.109375"
     inkscape:window-width="1920"
     inkscape:window-height="1001"
     inkscape:window-x="-9"
     inkscape:window-y="-9"
     inkscape:window-maximized="1"
     inkscape:current-layer="layer1"
     showguides="false"
     inkscape:lockguides="true">
    <inkscape:grid
       type="xygrid"
       id="grid186"
       originx="0"
       originy="0" />
  </sodipodi:namedview>
  <defs
     id="defs179" />
  <g
     inkscape:label="Layer 1"
     inkscape:groupmode="layer"
     id="layer1">
    <rect
       style="fill:#000000;stroke-width:1"
       id="rect990"
       width="1"
       height="20"
       x="0"
       y="0" />
    <rect
       style="fill:#000000;stroke-width:0.235702"
       id="rect992"
       width="1"
       height="1"
       x="1"
       y="1" />
    <rect
       style="fill:#000000;stroke-width:0.25"
       id="rect994"
       width="1"
       height="1"
       x="2"
       y="2" />
    <rect
       style="fill:#000000;stroke-width:0.267261"
       id="rect996"
       width="1"
       height="1"
       x="3"
       y="3" />
    <rect
       style="fill:#000000;stroke-width:0.267261"
       id="rect996-0"
       width="1"
       height="1"
       x="3"
       y="16" />
    <rect
       style="fill:#000000;stroke-width:0.288675"
       id="rect998"
       width="1"
       height="1"
       x="4"
       y="4" />
    <rect
       style="fill:#000000;stroke-width:0.316228"
       id="rect1000"
       width="1"
       height="1"
       x="5"
       y="5" />
    <rect
       style="fill:#000000;stroke-width:0.353553"
       id="rect1002"
       width="1"
       height="1"
       x="6"
       y="6" />
    <rect
       style="fill:#000000;stroke-width:0.408248"
       id="rect1004"
       width="1"
       height="1"
       x="7"
       y="7" />
    <rect
       style="fill:#000000;stroke-width:0.5"
       id="rect1006"
       width="1"
       height="1"
       x="8"
       y="8" />
    <rect
       style="fill:#000000;stroke-width:0.288675"
       id="rect998-0"
       width="1.0000001"
       height="1"
       x="4"
       y="-16"
       transform="scale(1,-1)" />
    <rect
       style="fill:#000000;stroke-width:0.316228"
       id="rect1000-4"
       width="1.0000001"
       height="1"
       x="5"
       y="-15"
       transform="scale(1,-1)" />
    <rect
       style="fill:#000000;stroke-width:0.353552"
       id="rect1002-6"
       width="1.0000001"
       height="1"
       x="6"
       y="-14"
       transform="scale(1,-1)" />
    <rect
       style="fill:#000000;stroke-width:0.408248"
       id="rect1004-9"
       width="1.0000001"
       height="1"
       x="7.0000005"
       y="-13"
       transform="scale(1,-1)" />
    <rect
       style="fill:#000000;stroke-width:0.5"
       id="rect1006-6"
       width="1.0000001"
       height="1"
       x="8"
       y="-12"
       transform="scale(1,-1)" />
    <rect
       style="fill:#000000"
       id="rect1008"
       width="1"
       height="2"
       x="9"
       y="9" />
    <rect
       style="fill:#000000;stroke-width:0.235702"
       id="rect1274"
       width="1"
       height="1"
       x="1"
       y="1" />
    <rect
       style="fill:#000000;stroke-width:0.235702"
       id="rect1274-2"
       width="1"
       height="1"
       x="1"
       y="18" />
    <rect
       style="fill:#000000;stroke-width:0.235702"
       id="rect1274-2-7"
       width="1"
       height="1"
       x="2"
       y="17" />
    <rect
       style="fill:#000000;stroke-width:1"
       id="rect1384"
       width="1"
       height="20"
       x="0"
       y="0" />
    <rect
       style="fill:#000000;stroke-width:0.235702"
       id="rect1386"
       width="1"
       height="1"
       x="1"
       y="1" />
    <rect
       style="fill:#000000;stroke-width:0.25"
       id="rect1388"
       width="1"
       height="1"
       x="2"
       y="2" />
    <rect
       style="fill:#000000;stroke-width:0.267261"
       id="rect1390"
       width="1"
       height="1"
       x="3"
       y="3" />
    <rect
       style="fill:#000000;stroke-width:0.267261"
       id="rect1392"
       width="1"
       height="1"
       x="3"
       y="16" />
    <rect
       style="fill:#000000;stroke-width:0.288675"
       id="rect1394"
       width="1"
       height="1"
       x="4"
       y="4" />
    <rect
       style="fill:#000000;stroke-width:0.316228"
       id="rect1396"
       width="1"
       height="1"
       x="5"
       y="5" />
    <rect
       style="fill:#000000;stroke-width:0.353553"
       id="rect1398"
       width="1"
       height="1"
       x="6"
       y="6" />
    <rect
       style="fill:#000000;stroke-width:0.408248"
       id="rect1400"
       width="1"
       height="1"
       x="7"
       y="7" />
    <rect
       style="fill:#000000;stroke-width:0.5"
       id="rect1402"
       width="1"
       height="1"
       x="8"
       y="8" />
    <rect
       style="fill:#000000;stroke-width:0.288675"
       id="rect1404"
       width="1.0000001"
       height="1"
       x="4"
       y="-16"
       transform="scale(1,-1)" />
    <rect
       style="fill:#000000;stroke-width:0.316228"
       id="rect1406"
       width="1.0000001"
       height="1"
       x="5"
       y="-15"
       transform="scale(1,-1)" />
    <rect
       style="fill:#000000;stroke-width:0.353552"
       id="rect1408"
       width="1.0000001"
       height="1"
       x="6"
       y="-14"
       transform="scale(1,-1)" />
    <rect
       style="fill:#000000;stroke-width:0.408248"
       id="rect1410"
       width="1.0000001"
       height="1"
       x="7.0000005"
       y="-13"
       transform="scale(1,-1)" />
    <rect
       style="fill:#000000;stroke-width:0.5"
       id="rect1412"
       width="1.0000001"
       height="1"
       x="8"
       y="-12"
       transform="scale(1,-1)" />
    <rect
       style="fill:#000000"
       id="rect1414"
       width="1"
       height="2"
       x="9"
       y="9" />
    <rect
       style="fill:#000000;stroke-width:0.235702"
       id="rect1416"
       width="1"
       height="1"
       x="1"
       y="1" />
    <rect
       style="fill:#000000;stroke-width:0.235702"
       id="rect1418"
       width="1"
       height="1"
       x="1"
       y="18" />
    <rect
       style="fill:#000000;stroke-width:0.235702"
       id="rect1420"
       width="1"
       height="1"
       x="2"
       y="17" />
    <rect
       style="fill:#000000;stroke-width:1"
       id="rect1384-7"
       width="1"
       height="20"
       x="10"
       y="0" />
    <rect
       style="fill:#000000;stroke-width:0.235702"
       id="rect1386-3"
       width="1"
       height="1"
       x="11"
       y="1" />
    <rect
       style="fill:#000000;stroke-width:0.25"
       id="rect1388-7"
       width="1"
       height="1"
       x="12"
       y="2" />
    <rect
       style="fill:#000000;stroke-width:0.267261"
       id="rect1390-8"
       width="1"
       height="1"
       x="13"
       y="3" />
    <rect
       style="fill:#000000;stroke-width:0.267261"
       id="rect1392-2"
       width="1"
       height="1"
       x="13"
       y="16" />
    <rect
       style="fill:#000000;stroke-width:0.288675"
       id="rect1394-0"
       width="1"
       height="1"
       x="14"
       y="4" />
    <rect
       style="fill:#000000;stroke-width:0.316228"
       id="rect1396-4"
       width="1"
       height="1"
       x="15"
       y="5" />
    <rect
       style="fill:#000000;stroke-width:0.353553"
       id="rect1398-8"
       width="1"
       height="1"
       x="16"
       y="6" />
    <rect
       style="fill:#000000;stroke-width:0.408248"
       id="rect1400-7"
       width="1"
       height="1"
       x="17"
       y="7" />
    <rect
       style="fill:#000000;stroke-width:0.5"
       id="rect1402-4"
       width="1"
       height="1"
       x="18"
       y="8" />
    <rect
       style="fill:#000000;stroke-width:0.288675"
       id="rect1404-2"
       width="1.0000001"
       height="1"
       x="14"
       y="-16"
       transform="scale(1,-1)" />
    <rect
       style="fill:#000000;stroke-width:0.316228"
       id="rect1406-3"
       width="1.0000001"
       height="1"
       x="15"
       y="-15"
       transform="scale(1,-1)" />
    <rect
       style="fill:#000000;stroke-width:0.353552"
       id="rect1408-2"
       width="1.0000001"
       height="1"
       x="16"
       y="-14"
       transform="scale(1,-1)" />
    <rect
       style="fill:#000000;stroke-width:0.408248"
       id="rect1410-9"
       width="1.0000001"
       height="1"
       x="17"
       y="-13"
       transform="scale(1,-1)" />
    <rect
       style="fill:#000000;stroke-width:0.5"
       id="rect1412-2"
       width="1.0000001"
       height="1"
       x="18"
       y="-12"
       transform="scale(1,-1)" />
    <rect
       style="fill:#000000"
       id="rect1414-7"
       width="1"
       height="2"
       x="19"
       y="9" />
    <rect
       style="fill:#000000;stroke-width:0.235702"
       id="rect1416-6"
       width="1"
       height="1"
       x="11"
       y="1" />
    <rect
       style="fill:#000000;stroke-width:0.235702"
       id="rect1418-0"
       width="1"
       height="1"
       x="11"
       y="18" />
    <rect
       style="fill:#000000;stroke-width:0.235702"
       id="rect1420-4"
       width="1"
       height="1"
       x="12"
       y="17" />
  </g>
</svg>
